<mxfile host="app.diagrams.net" modified="2023-03-28T09:34:36.122Z" agent="5.0 (Macintosh; Intel Mac OS X 10_15_7) AppleWebKit/537.36 (KHTML, like Gecko) Chrome/110.0.0.0 Safari/537.36" etag="pFRhtzwSi79bw7CrkEj9" version="21.0.2" type="github">
  <diagram name="第 1 页" id="GhYu5hjQb_tFR22Oqg20">
    <mxGraphModel dx="1122" dy="1807" grid="1" gridSize="10" guides="1" tooltips="1" connect="1" arrows="1" fold="1" page="1" pageScale="1" pageWidth="827" pageHeight="1169" math="0" shadow="0">
      <root>
        <mxCell id="0" />
        <mxCell id="1" parent="0" />
        <mxCell id="EH8zw30fIdEPAEvri086-34" style="edgeStyle=orthogonalEdgeStyle;rounded=0;orthogonalLoop=1;jettySize=auto;html=1;exitX=0.5;exitY=1;exitDx=0;exitDy=0;entryX=0;entryY=0.5;entryDx=0;entryDy=0;" edge="1" parent="1" source="EH8zw30fIdEPAEvri086-2" target="EH8zw30fIdEPAEvri086-33">
          <mxGeometry relative="1" as="geometry" />
        </mxCell>
        <mxCell id="EH8zw30fIdEPAEvri086-35" value="Mining()" style="edgeLabel;html=1;align=center;verticalAlign=middle;resizable=0;points=[];" vertex="1" connectable="0" parent="EH8zw30fIdEPAEvri086-34">
          <mxGeometry x="0.3176" relative="1" as="geometry">
            <mxPoint x="6" y="-10" as="offset" />
          </mxGeometry>
        </mxCell>
        <mxCell id="EH8zw30fIdEPAEvri086-2" value="ERC 20" style="swimlane;whiteSpace=wrap;html=1;startSize=30;" vertex="1" parent="1">
          <mxGeometry x="130" y="100" width="140" height="160" as="geometry" />
        </mxCell>
        <mxCell id="EH8zw30fIdEPAEvri086-8" value="Account" style="text;html=1;align=center;verticalAlign=middle;resizable=0;points=[];autosize=1;strokeColor=none;fillColor=none;" vertex="1" parent="EH8zw30fIdEPAEvri086-2">
          <mxGeometry x="30" y="30" width="70" height="30" as="geometry" />
        </mxCell>
        <mxCell id="EH8zw30fIdEPAEvri086-9" value="NFT Account" style="text;html=1;align=center;verticalAlign=middle;resizable=0;points=[];autosize=1;strokeColor=none;fillColor=none;" vertex="1" parent="EH8zw30fIdEPAEvri086-2">
          <mxGeometry x="20" y="60" width="90" height="30" as="geometry" />
        </mxCell>
        <mxCell id="EH8zw30fIdEPAEvri086-6" style="edgeStyle=orthogonalEdgeStyle;rounded=0;orthogonalLoop=1;jettySize=auto;html=1;entryX=1;entryY=0.5;entryDx=0;entryDy=0;" edge="1" parent="1" source="EH8zw30fIdEPAEvri086-3" target="EH8zw30fIdEPAEvri086-2">
          <mxGeometry relative="1" as="geometry" />
        </mxCell>
        <mxCell id="EH8zw30fIdEPAEvri086-21" style="edgeStyle=orthogonalEdgeStyle;rounded=0;orthogonalLoop=1;jettySize=auto;html=1;" edge="1" parent="1" source="EH8zw30fIdEPAEvri086-3">
          <mxGeometry relative="1" as="geometry">
            <mxPoint x="310" y="40" as="targetPoint" />
            <Array as="points">
              <mxPoint x="310" y="150" />
            </Array>
          </mxGeometry>
        </mxCell>
        <mxCell id="EH8zw30fIdEPAEvri086-22" value="NFT" style="edgeLabel;html=1;align=center;verticalAlign=middle;resizable=0;points=[];" vertex="1" connectable="0" parent="EH8zw30fIdEPAEvri086-21">
          <mxGeometry x="0.4111" relative="1" as="geometry">
            <mxPoint x="15" as="offset" />
          </mxGeometry>
        </mxCell>
        <mxCell id="EH8zw30fIdEPAEvri086-31" style="edgeStyle=orthogonalEdgeStyle;rounded=0;orthogonalLoop=1;jettySize=auto;html=1;exitX=1;exitY=0.25;exitDx=0;exitDy=0;" edge="1" parent="1" source="EH8zw30fIdEPAEvri086-3">
          <mxGeometry relative="1" as="geometry">
            <mxPoint x="580" y="40" as="targetPoint" />
          </mxGeometry>
        </mxCell>
        <mxCell id="EH8zw30fIdEPAEvri086-32" value="Token" style="edgeLabel;html=1;align=center;verticalAlign=middle;resizable=0;points=[];" vertex="1" connectable="0" parent="EH8zw30fIdEPAEvri086-31">
          <mxGeometry x="0.4675" y="-4" relative="1" as="geometry">
            <mxPoint x="13" as="offset" />
          </mxGeometry>
        </mxCell>
        <mxCell id="EH8zw30fIdEPAEvri086-3" value="DEX" style="swimlane;whiteSpace=wrap;html=1;" vertex="1" parent="1">
          <mxGeometry x="380" y="100" width="146" height="160" as="geometry" />
        </mxCell>
        <mxCell id="EH8zw30fIdEPAEvri086-10" value="Order" style="text;html=1;align=center;verticalAlign=middle;resizable=0;points=[];autosize=1;strokeColor=none;fillColor=none;" vertex="1" parent="EH8zw30fIdEPAEvri086-3">
          <mxGeometry x="48" y="20" width="50" height="30" as="geometry" />
        </mxCell>
        <mxCell id="EH8zw30fIdEPAEvri086-15" value="SetOrder()" style="text;html=1;align=center;verticalAlign=middle;resizable=0;points=[];autosize=1;strokeColor=none;fillColor=none;" vertex="1" parent="EH8zw30fIdEPAEvri086-3">
          <mxGeometry x="33" y="90" width="80" height="30" as="geometry" />
        </mxCell>
        <mxCell id="EH8zw30fIdEPAEvri086-23" value="SellOrder()" style="text;html=1;align=center;verticalAlign=middle;resizable=0;points=[];autosize=1;strokeColor=none;fillColor=none;" vertex="1" parent="EH8zw30fIdEPAEvri086-3">
          <mxGeometry x="33" y="115" width="80" height="30" as="geometry" />
        </mxCell>
        <mxCell id="EH8zw30fIdEPAEvri086-5" style="edgeStyle=orthogonalEdgeStyle;rounded=0;orthogonalLoop=1;jettySize=auto;html=1;entryX=1;entryY=0.5;entryDx=0;entryDy=0;" edge="1" parent="1" source="EH8zw30fIdEPAEvri086-4" target="EH8zw30fIdEPAEvri086-3">
          <mxGeometry relative="1" as="geometry" />
        </mxCell>
        <mxCell id="EH8zw30fIdEPAEvri086-36" style="edgeStyle=orthogonalEdgeStyle;rounded=0;orthogonalLoop=1;jettySize=auto;html=1;entryX=1;entryY=0.5;entryDx=0;entryDy=0;" edge="1" parent="1" source="EH8zw30fIdEPAEvri086-4" target="EH8zw30fIdEPAEvri086-33">
          <mxGeometry relative="1" as="geometry">
            <Array as="points">
              <mxPoint x="710" y="420" />
            </Array>
          </mxGeometry>
        </mxCell>
        <mxCell id="EH8zw30fIdEPAEvri086-37" value="collateral()" style="edgeLabel;html=1;align=center;verticalAlign=middle;resizable=0;points=[];" vertex="1" connectable="0" parent="EH8zw30fIdEPAEvri086-36">
          <mxGeometry x="0.4694" y="-4" relative="1" as="geometry">
            <mxPoint x="2" y="-6" as="offset" />
          </mxGeometry>
        </mxCell>
        <mxCell id="EH8zw30fIdEPAEvri086-4" value="ERC721" style="swimlane;whiteSpace=wrap;html=1;" vertex="1" parent="1">
          <mxGeometry x="630" y="100" width="150" height="160" as="geometry" />
        </mxCell>
        <mxCell id="EH8zw30fIdEPAEvri086-11" value="SellOrder()" style="text;html=1;align=center;verticalAlign=middle;resizable=0;points=[];autosize=1;strokeColor=none;fillColor=none;" vertex="1" parent="1">
          <mxGeometry x="285" y="180" width="80" height="30" as="geometry" />
        </mxCell>
        <mxCell id="EH8zw30fIdEPAEvri086-13" value="Approve()" style="text;html=1;align=center;verticalAlign=middle;resizable=0;points=[];autosize=1;strokeColor=none;fillColor=none;" vertex="1" parent="1">
          <mxGeometry x="540" y="150" width="80" height="30" as="geometry" />
        </mxCell>
        <mxCell id="EH8zw30fIdEPAEvri086-18" style="edgeStyle=orthogonalEdgeStyle;rounded=0;orthogonalLoop=1;jettySize=auto;html=1;entryX=0.25;entryY=0;entryDx=0;entryDy=0;" edge="1" parent="1" source="EH8zw30fIdEPAEvri086-16" target="EH8zw30fIdEPAEvri086-3">
          <mxGeometry relative="1" as="geometry" />
        </mxCell>
        <mxCell id="EH8zw30fIdEPAEvri086-20" value="Token" style="edgeLabel;html=1;align=center;verticalAlign=middle;resizable=0;points=[];" vertex="1" connectable="0" parent="EH8zw30fIdEPAEvri086-18">
          <mxGeometry x="0.3282" y="1" relative="1" as="geometry">
            <mxPoint x="-19" y="2" as="offset" />
          </mxGeometry>
        </mxCell>
        <mxCell id="EH8zw30fIdEPAEvri086-16" value="Buyer" style="shape=umlActor;verticalLabelPosition=bottom;verticalAlign=top;html=1;outlineConnect=0;" vertex="1" parent="1">
          <mxGeometry x="300" y="-40" width="30" height="60" as="geometry" />
        </mxCell>
        <mxCell id="EH8zw30fIdEPAEvri086-29" style="edgeStyle=orthogonalEdgeStyle;rounded=0;orthogonalLoop=1;jettySize=auto;html=1;entryX=0.75;entryY=0;entryDx=0;entryDy=0;" edge="1" parent="1" source="EH8zw30fIdEPAEvri086-24" target="EH8zw30fIdEPAEvri086-3">
          <mxGeometry relative="1" as="geometry" />
        </mxCell>
        <mxCell id="EH8zw30fIdEPAEvri086-24" value="Seller" style="shape=umlActor;verticalLabelPosition=bottom;verticalAlign=top;html=1;outlineConnect=0;" vertex="1" parent="1">
          <mxGeometry x="565" y="-40" width="30" height="60" as="geometry" />
        </mxCell>
        <mxCell id="EH8zw30fIdEPAEvri086-30" value="NFT" style="text;html=1;align=center;verticalAlign=middle;resizable=0;points=[];autosize=1;strokeColor=none;fillColor=none;" vertex="1" parent="1">
          <mxGeometry x="480" y="20" width="50" height="30" as="geometry" />
        </mxCell>
        <mxCell id="EH8zw30fIdEPAEvri086-33" value="Bank" style="swimlane;whiteSpace=wrap;html=1;" vertex="1" parent="1">
          <mxGeometry x="380" y="330" width="147" height="180" as="geometry" />
        </mxCell>
      </root>
    </mxGraphModel>
  </diagram>
</mxfile>
